HIERARCHY
ROOT Hips
{
	OFFSET 0.000000 83.214638 0.000000
	CHANNELS 6 Xposition Yposition Zposition Xrotation Yrotation Zrotation
	JOINT Pelvis
	{
		OFFSET 0.000000 0.000000 0.000000
		CHANNELS 3 Xrotation Yrotation Zrotation
		JOINT LeftUpLeg
		{
			OFFSET 8.479700 -4.795502 -0.379100
			CHANNELS 3 Xrotation Yrotation Zrotation
			JOINT LeftLeg
			{
				OFFSET 0.024144 -32.555107 0.112900
				CHANNELS 3 Xrotation Yrotation Zrotation
				JOINT LeftFoot
				{
					OFFSET -0.024144 -32.638630 -3.012600
					CHANNELS 3 Xrotation Yrotation Zrotation
					JOINT LeftToeBase
					{
						OFFSET 0.970200 -13.225400 11.864200
						CHANNELS 3 Xrotation Yrotation Zrotation
						End Site
						{
							OFFSET 0.000000 12.319262 0.000000
						}
					}
					JOINT LFootTongue
					{
						OFFSET 1.142400 -1.059800 6.665200
						CHANNELS 3 Xrotation Yrotation Zrotation
						End Site
						{
							OFFSET 0.000000 12.319262 0.000000
						}
					}
				}
				JOINT LeftPantLeg
				{
					OFFSET 0.918482 -16.533964 -2.284700
					CHANNELS 3 Xrotation Yrotation Zrotation
					End Site
					{
						OFFSET 0.350399 24.744368 0.000000
					}
				}
			}
		}
		JOINT RightUpLeg
		{
			OFFSET -8.479700 -4.795502 -0.379100
			CHANNELS 3 Xrotation Yrotation Zrotation
			JOINT RightLeg
			{
				OFFSET -0.023144 -32.555092 0.112900
				CHANNELS 3 Xrotation Yrotation Zrotation
				JOINT RightFoot
				{
					OFFSET 0.023144 -32.638641 -3.012700
					CHANNELS 3 Xrotation Yrotation Zrotation
					JOINT RightToeBase
					{
						OFFSET -0.970200 -13.225400 11.864200
						CHANNELS 3 Xrotation Yrotation Zrotation
						End Site
						{
							OFFSET 0.000000 12.319244 0.000000
						}
					}
					JOINT RFootTongue
					{
						OFFSET -1.142200 -1.059800 6.665200
						CHANNELS 3 Xrotation Yrotation Zrotation
						End Site
						{
							OFFSET 0.000000 12.319243 0.000000
						}
					}
				}
				JOINT RightPantLeg
				{
					OFFSET -0.919482 -16.533978 -2.284800
					CHANNELS 3 Xrotation Yrotation Zrotation
					End Site
					{
						OFFSET -0.350400 24.744419 0.000000
					}
				}
			}
		}
	}
	JOINT Spine
	{
		OFFSET 0.000000 7.722000 1.166200
		CHANNELS 3 Xrotation Yrotation Zrotation
		JOINT Spine1
		{
			OFFSET 0.000000 12.024101 0.248800
			CHANNELS 3 Xrotation Yrotation Zrotation
			JOINT Spine2
			{
				OFFSET 0.000000 11.502998 -0.491200
				CHANNELS 3 Xrotation Yrotation Zrotation
				JOINT Neck
				{
					OFFSET 0.000000 18.430702 -3.123100
					CHANNELS 3 Xrotation Yrotation Zrotation
					JOINT Head
					{
						OFFSET 0.000000 9.051102 1.034000
						CHANNELS 3 Xrotation Yrotation Zrotation
						JOINT HairB
						{
							OFFSET 0.208400 24.786102 24.822300
							CHANNELS 3 Xrotation Yrotation Zrotation
							End Site
							{
								OFFSET 0.000000 32.263779 0.000000
							}
						}
						JOINT HairA
						{
							OFFSET -7.081100 24.428299 23.196600
							CHANNELS 3 Xrotation Yrotation Zrotation
							End Site
							{
								OFFSET 0.000000 32.263779 0.000000
							}
						}
						JOINT Hat
						{
							OFFSET 16.728800 15.048294 -15.439601
							CHANNELS 3 Xrotation Yrotation Zrotation
							End Site
							{
								OFFSET 0.000000 32.263779 0.000000
							}
						}
					}
				}
				JOINT LeftShoulder
				{
					OFFSET 6.197800 13.665199 -4.064700
					CHANNELS 3 Xrotation Yrotation Zrotation
					JOINT LeftArm
					{
						OFFSET 7.778100 -0.187103 -1.709300
						CHANNELS 3 Xrotation Yrotation Zrotation
						JOINT LeftForeArm
						{
							OFFSET 22.049376 0.000000 0.000000
							CHANNELS 3 Xrotation Yrotation Zrotation
							JOINT LeftHand
							{
								OFFSET 23.009392 0.000000 0.000000
								CHANNELS 3 Xrotation Yrotation Zrotation
								JOINT LeftHandThumb1
								{
									OFFSET 3.507191 -2.063065 3.133727
									CHANNELS 3 Xrotation Yrotation Zrotation
									JOINT LeftHandThumb2
									{
										OFFSET 3.101337 -1.790558 1.790558
										CHANNELS 3 Xrotation Yrotation Zrotation
										JOINT LeftHandThumb3
										{
											OFFSET 3.058640 -1.765907 1.765906
											CHANNELS 3 Xrotation Yrotation Zrotation
											End Site
											{
												OFFSET -0.415260 3.926476 -0.049563
											}
										}
									}
								}
								JOINT LeftHandIndex1
								{
									OFFSET 11.334419 -0.901459 3.706815
									CHANNELS 3 Xrotation Yrotation Zrotation
									JOINT LeftHandIndex2
									{
										OFFSET 3.283112 0.000000 0.000000
										CHANNELS 3 Xrotation Yrotation Zrotation
										JOINT LeftHandIndex3
										{
											OFFSET 3.323853 0.000000 0.000000
											CHANNELS 3 Xrotation Yrotation Zrotation
											End Site
											{
												OFFSET -1.135597 3.097809 0.402452
											}
										}
									}
								}
								JOINT LeftHandMiddle1
								{
									OFFSET 11.335861 0.000000 0.000000
									CHANNELS 3 Xrotation Yrotation Zrotation
									JOINT LeftHandMiddle2
									{
										OFFSET 3.410492 0.000000 0.000000
										CHANNELS 3 Xrotation Yrotation Zrotation
										JOINT LeftHandMiddle3
										{
											OFFSET 3.312172 0.000000 0.000000
											CHANNELS 3 Xrotation Yrotation Zrotation
											End Site
											{
												OFFSET -1.150200 3.080154 0.400270
											}
										}
									}
								}
								JOINT LeftHandRing1
								{
									OFFSET 11.514786 -0.013176 -3.003090
									CHANNELS 3 Xrotation Yrotation Zrotation
									JOINT LeftHandRing2
									{
										OFFSET 3.053307 0.000000 0.000000
										CHANNELS 3 Xrotation Yrotation Zrotation
										JOINT LeftHandRing3
										{
											OFFSET 3.295807 0.000000 0.000000
											CHANNELS 3 Xrotation Yrotation Zrotation
											End Site
											{
												OFFSET -1.281006 3.013344 0.375733
											}
										}
									}
								}
								JOINT LeftHandPinky1
								{
									OFFSET 10.518692 -0.960396 -5.730441
									CHANNELS 3 Xrotation Yrotation Zrotation
									JOINT LeftHandPinky2
									{
										OFFSET 2.861649 0.000000 0.000000
										CHANNELS 3 Xrotation Yrotation Zrotation
										JOINT LeftHandPinky3
										{
											OFFSET 2.863380 0.000000 0.000000
											CHANNELS 3 Xrotation Yrotation Zrotation
											End Site
											{
												OFFSET -0.843597 2.711159 0.369971
											}
										}
									}
								}
							}
							JOINT LSleeve
							{
								OFFSET 6.676277 -0.344902 -1.011730
								CHANNELS 3 Xrotation Yrotation Zrotation
								End Site
								{
									OFFSET 0.000000 14.885353 0.000000
								}
							}
						}
					}
				}
				JOINT RightShoulder
				{
					OFFSET -6.197800 13.665199 -4.064700
					CHANNELS 3 Xrotation Yrotation Zrotation
					JOINT RightArm
					{
						OFFSET -7.778100 -0.187103 -1.709300
						CHANNELS 3 Xrotation Yrotation Zrotation
						JOINT RightForeArm
						{
							OFFSET -22.049376 0.000000 0.000000
							CHANNELS 3 Xrotation Yrotation Zrotation
							JOINT RightHand
							{
								OFFSET -23.009392 0.000000 0.000000
								CHANNELS 3 Xrotation Yrotation Zrotation
								JOINT RightHandThumb1
								{
									OFFSET -3.507191 -2.063065 3.133727
									CHANNELS 3 Xrotation Yrotation Zrotation
									JOINT RightHandThumb2
									{
										OFFSET -3.101337 -1.790558 1.790558
										CHANNELS 3 Xrotation Yrotation Zrotation
										JOINT RightHandThumb3
										{
											OFFSET -3.058640 -1.765907 1.765906
											CHANNELS 3 Xrotation Yrotation Zrotation
											End Site
											{
												OFFSET 0.415260 3.926476 -0.049563
											}
										}
									}
								}
								JOINT RightHandIndex1
								{
									OFFSET -11.334419 -0.901459 3.706815
									CHANNELS 3 Xrotation Yrotation Zrotation
									JOINT RightHandIndex2
									{
										OFFSET -3.283112 0.000000 0.000000
										CHANNELS 3 Xrotation Yrotation Zrotation
										JOINT RightHandIndex3
										{
											OFFSET -3.323853 0.000000 0.000000
											CHANNELS 3 Xrotation Yrotation Zrotation
											End Site
											{
												OFFSET 1.135597 3.097809 0.402452
											}
										}
									}
								}
								JOINT RightHandMiddle1
								{
									OFFSET -11.335861 0.000000 0.000000
									CHANNELS 3 Xrotation Yrotation Zrotation
									JOINT RightHandMiddle2
									{
										OFFSET -3.410492 0.000000 0.000000
										CHANNELS 3 Xrotation Yrotation Zrotation
										JOINT RightHandMiddle3
										{
											OFFSET -3.312172 0.000000 0.000000
											CHANNELS 3 Xrotation Yrotation Zrotation
											End Site
											{
												OFFSET 1.150200 3.080154 0.400270
											}
										}
									}
								}
								JOINT RightHandRing1
								{
									OFFSET -11.514786 -0.013176 -3.003090
									CHANNELS 3 Xrotation Yrotation Zrotation
									JOINT RightHandRing2
									{
										OFFSET -3.053307 0.000000 0.000000
										CHANNELS 3 Xrotation Yrotation Zrotation
										JOINT RightHandRing3
										{
											OFFSET -3.295807 0.000000 0.000000
											CHANNELS 3 Xrotation Yrotation Zrotation
											End Site
											{
												OFFSET 1.281006 3.013344 0.375733
											}
										}
									}
								}
								JOINT RightHandPinky1
								{
									OFFSET -10.518692 -0.960396 -5.730441
									CHANNELS 3 Xrotation Yrotation Zrotation
									JOINT RightHandPinky2
									{
										OFFSET -2.861649 0.000000 0.000000
										CHANNELS 3 Xrotation Yrotation Zrotation
										JOINT RightHandPinky3
										{
											OFFSET -2.863380 0.000000 0.000000
											CHANNELS 3 Xrotation Yrotation Zrotation
											End Site
											{
												OFFSET 0.843597 2.711159 0.369971
											}
										}
									}
								}
							}
							JOINT RSleeve
							{
								OFFSET -6.676277 -0.344902 -1.011730
								CHANNELS 3 Xrotation Yrotation Zrotation
								End Site
								{
									OFFSET 0.000000 14.885353 0.000000
								}
							}
						}
					}
				}
				JOINT Backpack
				{
					OFFSET 0.000000 -2.471497 36.677502
					CHANNELS 3 Xrotation Yrotation Zrotation
					End Site
					{
						OFFSET 0.000000 20.427315 0.000000
					}
				}
				JOINT Hood
				{
					OFFSET 0.000000 18.754097 -10.431000
					CHANNELS 3 Xrotation Yrotation Zrotation
					JOINT Hood1
					{
						OFFSET 0.000000 -5.011002 -7.685901
						CHANNELS 3 Xrotation Yrotation Zrotation
						End Site
						{
							OFFSET 0.000000 9.175140 0.000000
						}
					}
				}
				JOINT LHoodieString
				{
					OFFSET 5.250500 16.397697 3.089900
					CHANNELS 3 Xrotation Yrotation Zrotation
					JOINT LHoodieString1
					{
						OFFSET 0.257700 -6.364304 3.694600
						CHANNELS 3 Xrotation Yrotation Zrotation
						JOINT LHoodieString2
						{
							OFFSET 0.000000 -9.643799 2.679100
							CHANNELS 3 Xrotation Yrotation Zrotation
							End Site
							{
								OFFSET 0.000000 10.009018 0.000000
							}
						}
					}
				}
				JOINT RHoodieString
				{
					OFFSET -5.250500 16.397697 3.089900
					CHANNELS 3 Xrotation Yrotation Zrotation
					JOINT RHoodieString1
					{
						OFFSET -0.257700 -6.364304 3.694600
						CHANNELS 3 Xrotation Yrotation Zrotation
						JOINT RHoodieString2
						{
							OFFSET 0.000000 -9.643799 2.679100
							CHANNELS 3 Xrotation Yrotation Zrotation
							End Site
							{
								OFFSET 0.000000 10.009018 0.000000
							}
						}
					}
				}
			}
			JOINT LBackpack_Strap
			{
				OFFSET 15.223200 -7.719803 -6.610900
				CHANNELS 3 Xrotation Yrotation Zrotation
				End Site
				{
					OFFSET 0.000000 16.040596 0.000000
				}
			}
			JOINT RBackpack_Strap
			{
				OFFSET -15.223000 -7.719803 -6.610900
				CHANNELS 3 Xrotation Yrotation Zrotation
				End Site
				{
					OFFSET 0.000000 16.040596 0.000000
				}
			}
		}
	}
	JOINT BoyFacialAnim_Joint
	{
		OFFSET 1.000000 -82.208099 -1.550900
		CHANNELS 3 Xrotation Yrotation Zrotation
		End Site
		{
			OFFSET 0.000000 30.012791 0.000000
		}
	}
}
MOTION
Frames: 5
Frame Time: 0.016667
0.411283 87.950493 -4.448975 -92.610296 1.439677 4.412426 0.000000 -0.000000 -0.000000 -0.490551 14.963459 12.589616 0.736471 7.721145 4.123984 37.800261 28.272357 -29.558829 -0.000000 0.000000 0.000001 -0.000000 0.000000 -0.000000 -0.000001 -0.000002 0.000000 -3.815657 -18.809077 -17.174644 1.785232 -6.531836 -7.313288 36.876963 -29.640473 30.481082 -0.000001 0.000001 -0.000001 -0.000001 0.000001 -0.000001 -0.000000 0.000000 0.000001 4.271934 -0.733133 0.326921 5.662836 -1.787561 -1.408119 5.682625 -1.863436 -1.213449 -7.406065 -0.581396 1.811092 -13.802509 -2.716338 2.653906 -0.000001 0.000000 -0.000000 -0.000001 0.000000 -0.000000 -0.000001 0.000000 -0.000000 0.833463 0.643753 -7.065390 35.730902 -29.399965 -39.106050 0.001662 -86.008727 0.001619 -14.794584 -4.980873 -2.151170 6.590537 -4.958661 16.122667 7.178866 21.567306 2.147285 -0.000003 -0.000001 -0.000002 0.659524 4.932367 -26.024457 0.169789 1.401613 -13.813544 -0.000001 0.000001 -0.000005 1.376910 6.461964 -24.994176 0.169878 1.401968 -13.817116 0.000002 0.000002 0.000000 2.098731 8.644293 -21.209681 0.169786 1.401616 -13.813547 -0.000001 0.000005 0.000000 2.123440 10.735860 -14.817568 0.167501 1.392263 -13.719330 0.000003 0.000001 -0.000000 0.000001 -0.000003 0.000001 1.050852 -2.047990 18.147311 -39.666085 52.653399 55.025886 -0.000352 100.264841 0.000326 -34.129970 33.547376 -4.808408 24.570554 30.236701 15.138930 9.301649 -39.834029 -3.735071 -0.000001 0.000001 0.000001 -0.115176 -3.017715 29.162715 0.947770 -2.817935 37.173264 -0.000000 -0.000003 0.000005 -2.076525 -3.537413 58.007827 2.575720 -4.167065 63.427432 -0.000000 0.000002 0.000000 0.679044 -5.779053 70.144608 3.287898 -4.451768 72.883965 -0.000003 -0.000003 -0.000000 3.720096 -6.826227 77.738385 3.738189 -4.565829 78.607138 -0.000003 -0.000000 0.000002 -0.000001 -0.000004 -0.000005 0.000000 0.000000 0.000000 0.000000 0.000000 0.000000 0.000000 0.000000 0.000000 0.000000 0.000000 0.000000 0.000000 0.000000 -0.000000 0.000001 -0.000000 0.000000 0.000000 0.000000 0.000000 0.000000 0.000000 -0.000000 0.000001 -0.000000 0.000000 0.000001 -0.000000 -0.000000 0.000001 -0.000000 -0.000000 0.000000 -0.000000 -0.000000 
0.400892 87.951385 -4.547371 -92.823213 1.312021 4.399125 0.000000 -0.000000 0.000000 -0.040654 15.131000 12.600558 0.853664 7.709690 4.207483 37.811220 28.960286 -30.108990 -0.000000 -0.000001 0.000001 -0.000000 -0.000001 0.000001 0.000000 0.000001 -0.000001 -3.723966 -19.051868 -17.292676 1.803382 -6.396368 -7.209617 37.221990 -29.631874 30.465909 -0.000000 -0.000001 -0.000000 -0.000000 -0.000001 -0.000000 -0.000000 0.000000 -0.000001 4.234029 -0.725170 0.285607 5.577431 -1.781750 -1.434906 5.572900 -1.863084 -1.240884 -7.427409 -0.598162 1.870912 -14.412097 -2.797161 2.806450 -0.000001 -0.000000 0.000000 -0.000001 -0.000000 0.000000 -0.000001 -0.000000 0.000000 0.795799 0.368579 -6.754031 35.724331 -29.362625 -39.579068 -0.000735 -85.982294 -0.000682 -14.760426 -4.934459 -2.109625 6.590535 -4.958656 16.122667 7.178866 21.567304 2.147293 -0.000002 -0.000004 0.000002 0.659520 4.932362 -26.024464 0.169788 1.401619 -13.813542 -0.000002 -0.000002 -0.000002 1.376910 6.461966 -24.994176 0.169879 1.401974 -13.817118 0.000001 -0.000003 -0.000002 2.098731 8.644293 -21.209682 0.169780 1.401618 -13.813550 -0.000003 0.000002 0.000002 2.123436 10.735860 -14.817564 0.167500 1.392259 -13.719323 0.000003 0.000003 0.000002 -0.000001 0.000004 0.000001 1.046867 -1.901961 17.705032 -41.695614 52.153211 56.287381 0.000391 98.952133 -0.000379 -34.567044 34.030123 -4.422399 24.570550 30.236698 15.138966 9.301604 -39.834032 -3.735107 -0.000001 0.000000 0.000001 -0.115177 -3.017729 29.162715 0.947777 -2.817935 37.173270 -0.000003 0.000000 0.000002 -2.076510 -3.537401 58.007834 2.575704 -4.167055 63.427425 0.000003 0.000002 -0.000001 0.679052 -5.779067 70.144595 3.287916 -4.451761 72.883938 0.000002 -0.000002 0.000000 3.720099 -6.826244 77.738372 3.738192 -4.565811 78.607179 -0.000004 0.000003 -0.000001 -0.000001 -0.000003 -0.000002 0.000001 -0.000000 -0.000000 0.000001 -0.000000 -0.000000 0.000001 -0.000000 -0.000000 0.000001 -0.000000 -0.000000 0.000001 -0.000000 -0.000000 0.000001 -0.000000 -0.000000 0.000001 -0.000000 -0.000000 0.000001 -0.000000 -0.000000 0.000001 -0.000000 -0.000000 -0.000000 0.000000 0.000000 -0.000000 0.000000 0.000000 0.000000 -0.000000 0.000000 
0.388065 87.948616 -4.599747 -92.969420 1.266718 4.381178 0.000000 0.000000 -0.000000 0.286943 15.187554 12.622395 1.007822 7.680586 4.290888 37.859291 29.323710 -30.415915 0.000001 0.000002 0.000001 0.000001 0.000002 0.000001 0.000001 0.000000 -0.000003 -3.627379 -19.235040 -17.405361 1.806304 -6.318404 -7.086706 37.579537 -29.623801 30.459007 -0.000000 -0.000002 -0.000000 -0.000000 -0.000002 -0.000000 -0.000000 0.000002 0.000001 4.228039 -0.709391 0.254063 5.498821 -1.756072 -1.456300 5.557741 -1.836371 -1.256272 -7.364453 -0.607704 1.904430 -14.429613 -2.818835 2.924230 -0.000000 0.000000 0.000000 -0.000000 0.000000 0.000000 -0.000000 0.000000 0.000000 0.752572 0.149308 -6.556122 35.791667 -29.405593 -39.728478 -0.000490 -85.965683 -0.000449 -14.823932 -4.926958 -1.997092 6.590534 -4.958653 16.122665 7.178867 21.567304 2.147287 0.000002 0.000000 -0.000001 0.659527 4.932369 -26.024462 0.169791 1.401612 -13.813542 -0.000003 -0.000000 -0.000000 1.376910 6.461971 -24.994174 0.169879 1.401974 -13.817112 -0.000001 -0.000001 -0.000000 2.098729 8.644297 -21.209684 0.169782 1.401618 -13.813546 -0.000002 -0.000001 0.000001 2.123438 10.735860 -14.817568 0.167497 1.392260 -13.719327 0.000003 -0.000002 -0.000000 -0.000001 0.000000 0.000004 1.031407 -1.759338 17.391863 -42.645130 51.582087 56.777071 0.000664 97.838300 -0.000670 -34.847072 34.643751 -3.962480 24.570537 30.236704 15.138950 9.301652 -39.834025 -3.735083 -0.000000 -0.000000 -0.000002 -0.115159 -3.017720 29.162726 0.947767 -2.817920 37.173274 -0.000003 0.000000 -0.000002 -2.076522 -3.537405 58.007834 2.575717 -4.167073 63.427425 -0.000000 -0.000001 0.000005 0.679032 -5.779065 70.144608 3.287914 -4.451796 72.883958 -0.000003 -0.000004 -0.000002 3.720091 -6.826238 77.738392 3.738204 -4.565811 78.607165 -0.000004 -0.000002 0.000002 -0.000000 -0.000000 0.000002 0.000001 -0.000000 -0.000000 0.000001 -0.000000 -0.000000 0.000001 -0.000000 -0.000000 0.000001 -0.000000 -0.000000 0.000001 -0.000000 -0.000000 0.000001 -0.000000 -0.000000 0.000001 -0.000000 -0.000000 0.000001 -0.000000 -0.000000 0.000001 -0.000000 -0.000000 0.000000 0.000000 0.000000 0.000000 0.000000 0.000000 0.000000 0.000000 -0.000000 
0.373313 87.953293 -4.624268 -93.004951 1.197946 4.336766 0.000000 -0.000000 0.000000 0.436604 15.175693 12.664050 1.200831 7.641488 4.377350 37.944938 29.321951 -30.405140 -0.000001 -0.000001 0.000001 -0.000001 -0.000001 0.000001 0.000000 0.000001 0.000001 -3.590980 -19.319279 -17.410277 1.802980 -6.192656 -7.066188 37.945516 -29.620024 30.452958 -0.000000 0.000001 0.000000 -0.000000 0.000001 0.000000 0.000001 0.000001 0.000001 4.239197 -0.691776 0.243945 5.508384 -1.714588 -1.460458 5.567306 -1.797902 -1.270685 -7.160142 -0.610770 1.930708 -13.898868 -2.777516 3.041225 -0.000000 0.000000 0.000000 -0.000000 0.000000 0.000000 -0.000000 0.000000 0.000000 0.749817 0.216470 -6.485456 35.680372 -29.527423 -39.791757 0.000798 -85.903480 0.000813 -14.753361 -4.901675 -2.106199 6.590535 -4.958658 16.122668 7.178868 21.567306 2.147289 -0.000003 -0.000004 0.000002 0.659521 4.932364 -26.024458 0.169794 1.401619 -13.813545 -0.000002 -0.000001 -0.000000 1.376911 6.461961 -24.994179 0.169881 1.401969 -13.817119 -0.000000 -0.000004 -0.000004 2.098729 8.644292 -21.209684 0.169783 1.401620 -13.813554 -0.000001 0.000003 -0.000002 2.123436 10.735857 -14.817569 0.167500 1.392259 -13.719327 0.000001 -0.000001 -0.000002 -0.000004 0.000000 0.000004 1.021785 -1.623932 17.128497 -43.055375 51.175496 56.795294 0.000380 96.870654 -0.000378 -35.048026 35.074531 -3.705412 24.570549 30.236704 15.138932 9.301633 -39.834039 -3.735085 -0.000000 -0.000000 0.000000 -0.115175 -3.017725 29.162726 0.947769 -2.817935 37.173270 -0.000002 0.000001 0.000000 -2.076518 -3.537398 58.007834 2.575720 -4.167054 63.427432 0.000001 0.000005 -0.000001 0.679053 -5.779061 70.144608 3.287916 -4.451746 72.883945 -0.000001 0.000002 -0.000001 3.720083 -6.826234 77.738365 3.738197 -4.565842 78.607151 0.000000 -0.000001 0.000000 0.000002 0.000001 -0.000002 -0.000000 -0.000000 0.000000 -0.000000 -0.000000 0.000000 -0.000000 -0.000000 0.000000 -0.000000 -0.000000 0.000000 -0.000000 -0.000000 0.000000 -0.000000 -0.000000 0.000000 -0.000000 -0.000000 0.000000 -0.000000 -0.000000 0.000000 -0.000000 -0.000000 0.000000 -0.000000 0.000000 0.000000 -0.000000 0.000000 0.000000 0.000000 -0.000000 0.000000 
0.356111 87.961510 -4.616692 -92.929266 1.126909 4.275111 -0.000000 -0.000000 0.000000 0.389385 15.120966 12.715469 1.406104 7.596834 4.461033 38.043693 29.318710 -30.389274 -0.000001 -0.000000 0.000000 -0.000001 -0.000000 0.000000 -0.000001 -0.000000 0.000003 -3.616195 -19.327084 -17.354377 1.727159 -6.150885 -7.077577 38.387617 -29.617059 30.452067 -0.000001 -0.000001 0.000000 -0.000001 -0.000001 0.000000 0.000000 0.000002 -0.000000 4.265356 -0.673145 0.249868 5.555462 -1.676086 -1.446811 5.614014 -1.763747 -1.275981 -6.848932 -0.568000 1.851870 -12.821034 -2.678194 3.067695 0.000000 0.000000 -0.000001 0.000000 0.000000 -0.000001 0.000000 0.000000 -0.000001 0.758827 0.358508 -6.445956 35.602050 -29.770633 -39.668694 0.001337 -85.806505 0.001308 -14.766773 -4.951838 -2.141294 6.590534 -4.958654 16.122667 7.178863 21.567301 2.147290 -0.000002 0.000000 0.000001 0.659521 4.932366 -26.024457 0.169792 1.401620 -13.813547 -0.000000 0.000002 -0.000001 1.376908 6.461970 -24.994176 0.169879 1.401973 -13.817113 0.000001 -0.000000 0.000002 2.098724 8.644297 -21.209682 0.169780 1.401616 -13.813549 0.000000 0.000002 -0.000000 2.123435 10.735861 -14.817566 0.167500 1.392260 -13.719323 -0.000002 -0.000002 0.000001 -0.000001 -0.000000 0.000004 1.056735 -1.497104 16.955113 -42.526254 51.008717 56.077059 0.000131 96.300135 -0.000132 -35.264793 35.244404 -3.939592 24.570550 30.236704 15.138947 9.301630 -39.834015 -3.735094 -0.000000 0.000000 -0.000002 -0.115171 -3.017705 29.162715 0.947776 -2.817931 37.173270 0.000001 0.000000 0.000004 -2.076525 -3.537407 58.007820 2.575711 -4.167078 63.427425 -0.000000 0.000000 -0.000000 0.679073 -5.779045 70.144629 3.287863 -4.451755 72.883938 0.000000 -0.000003 -0.000002 3.720092 -6.826232 77.738365 3.738187 -4.565838 78.607165 -0.000003 -0.000001 -0.000002 0.000001 0.000001 -0.000002 -0.000001 0.000000 0.000000 -0.000001 0.000000 0.000000 -0.000001 0.000000 0.000000 -0.000001 0.000000 0.000000 -0.000001 0.000000 -0.000000 -0.000001 -0.000000 -0.000000 -0.000001 0.000000 0.000000 -0.000001 0.000000 -0.000000 -0.000001 -0.000000 -0.000000 0.000000 0.000000 -0.000000 0.000000 0.000000 -0.000000 -0.000000 -0.000000 0.000000 
